<?xml version="1.0" encoding="UTF-8" standalone="no"?><!DOCTYPE svg PUBLIC "-//W3C//DTD SVG 1.1//EN" "http://www.w3.org/Graphics/SVG/1.1/DTD/svg11.dtd"><svg width="100%" height="100%" viewBox="0 0 117 118" version="1.1" xmlns="http://www.w3.org/2000/svg" xmlns:xlink="http://www.w3.org/1999/xlink" xml:space="preserve" xmlns:serif="http://www.serif.com/" style="fill-rule:evenodd;clip-rule:evenodd;stroke-linejoin:round;stroke-miterlimit:2;"><g><rect x="0" y="0" width="116.532" height="117.54" style="fill:#0a0b10;fill-opacity:0;"/><path d="M103.207,104.1l-42.999,0l0,-22.316c4.465,-0.423 8.193,-2.219 11.185,-5.389c2.992,-3.17 4.487,-6.868 4.487,-11.095c0,-4.565 -1.741,-8.495 -5.224,-11.792c-3.483,-3.297 -7.635,-4.945 -12.458,-4.945c-4.822,0 -8.953,1.648 -12.391,4.945c-3.438,3.297 -5.157,7.227 -5.157,11.792c0,4.227 1.496,7.925 4.487,11.095c2.992,3.17 6.72,4.966 11.185,5.389l0,22.316l-42.999,0l44.874,-90.66l45.008,90.66Z" style="fill:#e6e9f0;fill-rule:nonzero;"/></g></svg>